{"title":"Knife.Party.Discography.2011-2014.FLAC.iSAAC","uid":11442373,"size":948589131,"categoryP":"audio","categoryS":"flac","magnet":"?xt=urn:btih:b627d92bfecf36438f78b39176cb663a93333a6e&amp;dn=Knife.Party.Discography.2011-2014.FLAC.iSAAC&amp;tr=udp%3A%2F%2Ftracker.openbittorrent.com%3A80&amp;tr=udp%3A%2F%2Fopen.demonii.com%3A1337&amp;tr=udp%3A%2F%2Ftracker.coppersurfer.tk%3A6969&amp;tr=udp%3A%2F%2Fexodus.desync.com%3A6969","seeders":8,"leechers":4,"uploader":"Isaac09","files":-1,"time":1415823295,"description":"Knife.Party.100%.No.Modern.Talking.2011.FLAC.iSAAC\n\n\nARTIST........: Knife Party\nALBUM.........: 100% No Modern Talking\nRELEASED......: December 12, 2011\nRUNTIME.......: 19mn 52sec\nAUDIO CODEC...: FLAC\nSAMPLING RATE.: 44.1 KHz\nBIT DEPTH.....: 16 Bits\nBITRATE.......: ~1 Mbps\nSOURCE........: Digital Download\nGENRE.........: Electro House\nLABEL.........: Earstorm\nPRODUCERS.....: Rob Swire, Gareth McGrillen\n\n\n100% No Modern Talking is the first EP by Australian electro house duo Knife Party. It was released 12 December 2011 as a free download on their website, Facebook and Soundcloud as well as being available for purchase on Beatport and iTunes. The EP originally was to feature &quot;Back to the Z-List&quot;, but was replaced with &quot;Destroy Them with Lazers&quot; as Knife Party no longer liked their first choice. The album title refers to the &quot;Modern Talking&quot; wavetable in the software synthesiser Massive by Native Instruments, which creates the &quot;talking&quot; sound featured in popular dubstep tracks. Rob Swire has described it as &quot;the Comic Sans of dubstep sounds&quot;.\n\n\n100% No Modern Talking [19:52]\n_________________________________\n\n\n01. Internet Friends [5:01]\n02. Destroy Them With Lazers [4:56]\n03. Tourniquet [5:17]\n04. Fire Hive [4:38]\n\n\n---------------------------------\n\n\nFormat                                   : FLAC\nFormat/Info                              : Free Lossless Audio Codec\nFile size                                : 36.6 MiB\nDuration                                 : 5mn 1s\nOverall bit rate mode                    : Variable\nOverall bit rate                         : 1 018 Kbps\nAlbum                                    : 100% No Modern Talking\nAlbum/Performer                          : Knife Party\nPart                                     : 1\nPart/Total                               : 1\nTrack name                               : Internet Friends\nTrack name/Position                      : 1\nTrack name/Total                         : 4\nPerformer                                : Knife Party\nLabel                                    : Earstorm\nRecorded date                            : 2011-12-12\nCover                                    : Yes\nCover type                               : Cover (front)\nCover MIME                               : image/jpeg\nRELEASECOUNTRY                           : XW\nMUSICBRAINZ_RELEASETRACKID               : 76cafb22-7dfb-3b7d-969d-2789fa04d000\nALBUMARTISTSORT                          : Knife Party\nORIGINALDATE                             : 2011-12-12\nSCRIPT                                   : Latn\nRELEASESTATUS                            : official\nACOUSTID_ID                              : 9656ad64-fb7d-483c-aa8b-721ef5ff39f2\nCATALOGNUMBER                            : EARSTORM001\nMEDIA                                    : Digital Media\nRELEASETYPE                              : ep\nMUSICBRAINZ_RELEASEGROUPID               : d7b37815-eb74-4cf5-9170-043fa7a90201\nARTISTSORT                               : Knife Party\nARTISTS                                  : Knife Party\n\nAudio\nFormat                                   : FLAC\nFormat/Info                              : Free Lossless Audio Codec\nDuration                                 : 5mn 1s\nBit rate mode                            : Variable\nBit rate                                 : 1 005 Kbps\nChannel(s)                               : 2 channels\nSampling rate                            : 44.1 KHz\nBit depth                                : 16 bits\nStream size                              : 36.1 MiB (99%)\nWriting library                          : libFLAC 1.2.1 (UTC 2007-09-17)\n\n---------------------------------------------------------------------------\n\nKnife.Party.Rage.Valley.2012.FLAC.iSAAC\n\n\nARTIST........: Knife Party\nALBUM.........: Rage Valley\nRELEASED......: May 27, 2012\nRUNTIME.......: 18mn 10sec\nAUDIO CODEC...: FLAC\nSAMPLING RATE.: 44.1 KHz\nBIT DEPTH.....: 16 Bits\nBITRATE.......: ~1 Mbps\nSOURCE........: Digital Download\nGENRE.........: Electro House\nLABEL.........: Earstorm, Big Beat\nPRODUCERS.....: Rob Swire, Gareth McGrillen\n\n\nRage Valley is the second EP by the Australian electro house duo Knife Party. It was released 27 May 2012 on Beatport and on 3 June 2012 on iTunes. The title track was originally named &quot;Fuck Em&quot; but was changed for what Knife Party described as &quot;secret shady&quot; reasons. Originally Rage Valley was set to be released before the end of April, but due to multiple setbacks the release was delayed for four weeks. A music video for &quot;Centipede&quot; was released on 8 August 2012. The track &quot;Bonfire&quot; was featured in the episode &quot;Fifty-One&quot; of Breaking Bad, and &quot;Centipede&quot; was featured in the fourth episode of the BBC comedy series The Wrong Mans.\n\n\nRage Valley [18:10]\n_________________________________\n\n\n01. Rage Valley [4:59]\n02. Centipede [4:06]\n03. Bonfire [4:32]\n04. Sleaze [4:33]\n\n\n---------------------------------\n\n\nFormat                                   : FLAC\nFormat/Info                              : Free Lossless Audio Codec\nFile size                                : 41.1 MiB\nDuration                                 : 4mn 59s\nOverall bit rate mode                    : Variable\nOverall bit rate                         : 1 152 Kbps\nAlbum                                    : Rage Valley\nAlbum/Performer                          : Knife Party\nPart                                     : 1\nPart/Total                               : 1\nTrack name                               : Rage Valley\nTrack name/Position                      : 1\nTrack name/Total                         : 4\nPerformer                                : Knife Party\nLabel                                    : Earstorm\nRecorded date                            : 2012-05-27\nCover                                    : Yes\nCover type                               : Cover (front)\nCover MIME                               : image/jpeg\nRELEASECOUNTRY                           : XW\nMUSICBRAINZ_RELEASETRACKID               : 4697ff1d-c6b3-3dde-b14f-46e5f9e57575\nALBUMARTISTSORT                          : Knife Party\nORIGINALDATE                             : 2012-05-27\nSCRIPT                                   : Latn\nRELEASESTATUS                            : official\nCATALOGNUMBER                            : 825646581917\nMEDIA                                    : Digital Media\nRELEASETYPE                              : ep\nMUSICBRAINZ_RELEASEGROUPID               : bd80b8cd-f756-4467-aab4-0f0a216a57a9\nARTISTSORT                               : Knife Party\nARTISTS                                  : Knife Party\n\nAudio\nFormat                                   : FLAC\nFormat/Info                              : Free Lossless Audio Codec\nDuration                                 : 4mn 59s\nBit rate mode                            : Variable\nBit rate                                 : 1 136 Kbps\nChannel(s)                               : 2 channels\nSampling rate                            : 44.1 KHz\nBit depth                                : 16 bits\nStream size                              : 40.5 MiB (99%)\nWriting library                          : libFLAC 1.2.1 (UTC 2007-09-17)\n\n---------------------------------------------------------------------------\n\nKnife.Party.Haunted.House.2013.FLAC.iSAAC\n\n\nARTIST........: Knife Party\nALBUM.........: Haunted House\nRELEASED......: May 6, 2013\nRUNTIME.......: 18mn 59sec\nAUDIO CODEC...: FLAC\nSAMPLING RATE.: 44.1 KHz\nBIT DEPTH.....: 16 Bits\nBITRATE.......: ~1 Mbps\nSOURCE........: Digital Download\nGENRE.........: Electro House\nLABEL.........: Earstorm, Big Beat\nPRODUCERS.....: Rob Swire, Gareth McGrillen\n\n\nHaunted House is the third EP by the Australian electro house duo Knife Party. All tracks are written and produced by Rob Swire and Gareth McGrillen. It was announced through their official Twitter page on 8 August 2012. It was released on 6 May 2013.\n\n\nHaunted House [18:59]\n_________________________________\n\n\n01. Power Glove [4:21]\n02. LRAD [5:15]\n03. EDM Death Machine [4:23]\n04. Internet Friends (VIP) [5:01]\n\n\n---------------------------------\n\nFormat                                   : FLAC\nFormat/Info                              : Free Lossless Audio Codec\nFile size                                : 35.8 MiB\nDuration                                 : 4mn 21s\nOverall bit rate mode                    : Variable\nOverall bit rate                         : 1 149 Kbps\nAlbum                                    : Haunted House\nAlbum/Performer                          : Knife Party\nPart                                     : 1\nPart/Total                               : 1\nTrack name                               : Power Glove\nTrack name/Position                      : 1\nTrack name/Total                         : 4\nPerformer                                : Knife Party\nLabel                                    : Big Beat / Earstorm / Warner Music UK Ltd.\nRecorded date                            : 2013-05-06\nCover                                    : Yes\nCover type                               : Cover (front)\nCover MIME                               : image/jpeg\nRELEASECOUNTRY                           : XW\nMUSICBRAINZ_RELEASETRACKID               : ecf3c3d8-af36-33b4-a820-873d9ccb3d29\nASIN                                     : B00CJSIXCS\nALBUMARTISTSORT                          : Knife Party\nORIGINALDATE                             : 2013-05-06\nSCRIPT                                   : Latn\nRELEASESTATUS                            : official\nMEDIA                                    : Digital Media\nRELEASETYPE                              : ep\nMUSICBRAINZ_RELEASEGROUPID               : 40cbf9bc-8684-404a-aaf2-e0e0c9c00c37\nARTISTSORT                               : Knife Party\nARTISTS                                  : Knife Party\n\nAudio\nFormat                                   : FLAC\nFormat/Info                              : Free Lossless Audio Codec\nDuration                                 : 4mn 21s\nBit rate mode                            : Variable\nBit rate                                 : 1 138 Kbps\nChannel(s)                               : 2 channels\nSampling rate                            : 44.1 KHz\nBit depth                                : 16 bits\nStream size                              : 35.4 MiB (99%)\nWriting library                          : libFLAC 1.2.1 (UTC 2007-09-17)\n\n---------------------------------------------------------------------------\n\nKnife.Party.Abandon.Ship.2014.FLAC.iSAAC\n\n\nARTIST........: Knife Party\nALBUM.........: Abandon Ship\nRELEASED......: November 7, 2014\nRUNTIME.......: 56mn 36sec\nAUDIO CODEC...: FLAC\nSAMPLING RATE.: 44.1 KHz\nBIT DEPTH.....: 16 Bits\nBITRATE.......: ~1 Mbps\nSOURCE........: Digital Download\nGENRE.........: Dance, Electronic\nLABEL.........: Earstorm, Big Beat\nPRODUCERS.....: Rob Swire, Gareth McGrillen\n\n\nAbandon Ship is the debut studio album from Australian electro house duo Knife Party. It is due for release on 24 November 2014 after being postponed from the 27 October 2014 and is to be released by Earstorm Records and Big Beat Records. However, on the 7th of November 2014, the iTunes Store released the album early, and has been acknowledged by Knife Party themselves.\n\n\nAbandon Ship [56:36]\n_________________________________\n\n\n01. Reconnect [1:38]\n02. Resistance [5:13]\n03. Boss Mode [3:47]\n04. EDM Trend Machine [5:05]\n05. 404 [4:58]\n06. Begin Again [5:55]\n07. Give It Up [4:11]\n08. D.I.M.H. [5:46]\n09. Micropenis [5:32]\n10. Superstar [4:15]\n11. Red Dawn [6:07]\n12. Kaleidoscope [4:00]\n\n---------------------------------\n\nFormat                                   : FLAC\nFormat/Info                              : Free Lossless Audio Codec\nFile size                                : 12.3 MiB\nDuration                                 : 1mn 38s\nOverall bit rate mode                    : Variable\nOverall bit rate                         : 1 047 Kbps\nAlbum                                    : Abandon Ship\nAlbum/Performer                          : Knife Party\nPart                                     : 1\nPart/Total                               : 1\nTrack name                               : Reconnect\nTrack name/Position                      : 1\nTrack name/Total                         : 12\nPerformer                                : Knife Party\nLabel                                    : Earstorm\nRecorded date                            : 2014-11-27\nCover                                    : Yes\nCover type                               : Cover (front)\nCover MIME                               : image/jpeg\nRELEASECOUNTRY                           : XW\nMUSICBRAINZ_RELEASETRACKID               : 63ab4018-5f61-4202-8c2c-fe83a6a20f54\nALBUMARTISTSORT                          : Knife Party\nORIGINALDATE                             : 2014-11-27\nRELEASESTATUS                            : official\nMEDIA                                    : Digital Media\nRELEASETYPE                              : album / dj-mix\nMUSICBRAINZ_RELEASEGROUPID               : fb9c1dfc-b45a-47dd-85a3-32072a65b51b\nARTISTSORT                               : Knife Party\nARTISTS                                  : Knife Party\n\nAudio\nFormat                                   : FLAC\nFormat/Info                              : Free Lossless Audio Codec\nDuration                                 : 1mn 38s\nBit rate mode                            : Variable\nBit rate                                 : 1 032 Kbps\nChannel(s)                               : 2 channels\nSampling rate                            : 44.1 KHz\nBit depth                                : 16 bits\nStream size                              : 12.1 MiB (99%)\nWriting library                          : libFLAC 1.2.1 (UTC 2007-09-17)","torrent":{"xt":"urn:btih:b627d92bfecf36438f78b39176cb663a93333a6e","amp;dn":"Knife.Party.Discography.2011-2014.FLAC.iSAAC","amp;tr":["udp%3A%2F%2Ftracker.openbittorrent.com%3A80","udp%3A%2F%2Fopen.demonii.com%3A1337","udp%3A%2F%2Ftracker.coppersurfer.tk%3A6969","udp%3A%2F%2Fexodus.desync.com%3A6969"],"infoHash":"b627d92bfecf36438f78b39176cb663a93333a6e","infoHashBuffer":{"type":"Buffer","data":[182,39,217,43,254,207,54,67,143,120,179,145,118,203,102,58,147,51,58,110]},"announce":[],"urlList":[]}}